<svg xmlns="http://www.w3.org/2000/svg" xmlns:xlink="http://www.w3.org/1999/xlink" version="1.1" x="0px" y="0px" viewBox="0 0 75 93.75" enable-background="new 0 0 75 75" xml:space="preserve"><g><path d="M51.6,27.4c2.4,3.5,3.7,8.1,4.1,13.5c0,0.7,0.9,1,1.3,0.4c0.4-0.4,8.5-10.2,5.1-18.3c-2.3-5.4-9.1-8.7-20.4-9.8   C46.4,8,53.7,11,59.3,15.3c0.5,0.4,1.2,0,1.2-0.6c0-0.1,0-0.2,0-0.3c-0.2-1.6-2.1-12.3-11.3-12.3c-3.3,0-7.2,1.4-11.5,4.2   C36,5.3,30.1,1.5,24.3,1.5c-4.8,0-10.9,2.7-12.2,15.7c0,0.4,0.2,0.7,0.6,0.8c0.4,0.1,0.7-0.1,0.9-0.4c0-0.1,3.4-7.2,10.1-7.2   c1.8,0,3.7,0.5,5.7,1.5c-4.2,0.3-11.7,1.7-15.4,7.4c-3.2,5.1-2.5,12.3,1.9,21.5c0.2,0.3,0.5,0.5,0.8,0.4c0.3-0.1,0.6-0.4,0.6-0.7   c0.2-7.9,6.8-17.1,15.2-19.6c0.2,1.3,0.5,4,0.7,7.6c-0.2,1.7,3.8,38-18,43.5c-0.4,0.1-0.6,0.4-0.6,0.8c0,0.4,0.4,0.7,0.7,0.7H33   c1.2,0,2.3-0.5,3.1-1.5c2.6-3.2,9.3-13.2,8.6-30.8c0-0.1,0-0.1,0-0.2c-0.3-6-1.4-12.9-3.8-20.6C45.2,21.2,49.1,23.7,51.6,27.4z    M16.2,37.8c-3.2-7.5-3.5-13.5-0.9-17.6c3.3-5.3,10.5-6.6,16.7-6.8c0.3,0,0.6-0.2,0.7-0.5c0.1-0.3,0-0.7-0.3-0.9   c-3-2.1-6-3.1-8.7-3.1c-4.6,0-7.7,2.8-9.6,5.1C15.5,6.7,19,3,24.3,3c6.2,0,12.8,4.9,12.9,4.9c0.3,0.2,0.6,0.2,0.9,0   c4.3-2.8,8-4.3,11.1-4.3c6.4,0,8.7,6.1,9.5,9.3c-3.8-2.7-7.4-4-10.6-4c-5.8,0-8.3,4.4-8.4,4.6c-0.1,0.2-0.1,0.5,0,0.7   c0.1,0.2,0.4,0.4,0.6,0.4c11.4,0.9,18.3,3.9,20.4,9c2.3,5.5-1.7,12.3-3.7,15.2c-0.6-4.9-2-9-4.2-12.3C43,11.8,19.9,18.8,16.2,37.8z    M43.1,40.8c-3.2,2.9-7,0.9-8.1,0.1c0.2-3.9,0.2-7.7,0-10.9c2.2,1,4.6,1,6.7-0.4C42.5,33.7,42.9,37.4,43.1,40.8z M38.1,66.1   c-5.7,2.4-9.8,1.2-11.4,0.5c2.7-3.2,4.6-7.3,5.9-11.6c3,1.5,6.3,1.8,9.4,0.2C41,59.8,39.6,63.4,38.1,66.1z M42.4,53.2   c-4,2.8-7.9,1.1-9.3,0.3c0.9-3.6,1.5-7.3,1.8-10.9c2.7,1.4,5.8,1.8,8.3,0.1C43.2,46.6,42.9,50.1,42.4,53.2z M34.9,71.1   C34.4,71.7,33.7,72,33,72H19.8c2.3-1.1,4.2-2.5,5.8-4.3c2.9,1.4,6.9,1.8,11.3,0.4C36.2,69.4,35.4,70.4,34.9,71.1z M41.3,28   c-2.6,2.2-5.5,0.9-6.5,0.3c-0.3-3.7-0.6-6.5-0.8-7.8c1.8-0.4,3.5-0.5,5.1-0.3C40,22.9,40.8,25.5,41.3,28z"/><path d="M30.6,16.1c-11.3,2.3-14.7,10.6-14.8,11c-0.1,0.4,0,0.8,0.4,1c0.4,0.1,0.8,0,1-0.4c0-0.1,3.2-7.9,13.7-10   c0.4-0.1,0.7-0.5,0.6-0.9C31.4,16.3,31,16.1,30.6,16.1z"/><path d="M45,18.3c0.1,0,13.1,3.4,12.4,12c-0.1,1,1.4,1.1,1.5,0.1c0.8-9.8-13-13.4-13.6-13.6c-0.4-0.1-0.8,0.1-0.9,0.5   C44.4,17.8,44.6,18.2,45,18.3z"/><path d="M19.5,6.1c-0.4,0.1-0.6,0.6-0.4,1c0.1,0.4,0.6,0.6,1,0.4c0.1,0,7.2-2.7,12.5,2.3c0.3,0.3,0.8,0.3,1.1,0   c0.3-0.3,0.3-0.8,0-1.1C27.7,3.1,19.9,6,19.5,6.1z"/><path d="M42.5,9.4c5.1-4.3,10-1.6,10.2-1.5c0.4,0.2,0.8,0.1,1-0.3c0.2-0.4,0.1-0.8-0.3-1c-0.1,0-6-3.3-11.9,1.7   c-0.3,0.3-0.4,0.7-0.1,1.1C41.7,9.7,42.2,9.7,42.5,9.4z"/></g><text x="0" y="90" fill="#000000" font-size="5px" font-weight="bold" font-family="'Helvetica Neue', Helvetica, Arial-Unicode, Arial, Sans-serif">Created by ProSymbols</text><text x="0" y="95" fill="#000000" font-size="5px" font-weight="bold" font-family="'Helvetica Neue', Helvetica, Arial-Unicode, Arial, Sans-serif">from the Noun Project</text></svg>